<svg width="256" height="42" viewBox="0 0 256 42" fill="none" xmlns="http://www.w3.org/2000/svg">
<path d="M76.682 15.388C78.45 15.388 79.8713 15.934 80.946 17.026C82.038 18.1007 82.584 19.6087 82.584 21.55V30H78.944V22.044C78.944 20.9173 78.658 20.0593 78.086 19.47C77.514 18.8633 76.734 18.56 75.746 18.56C74.758 18.56 73.9693 18.8633 73.38 19.47C72.808 20.0593 72.522 20.9173 72.522 22.044V30H68.882V22.044C68.882 20.9173 68.596 20.0593 68.024 19.47C67.452 18.8633 66.672 18.56 65.684 18.56C64.6787 18.56 63.8813 18.8633 63.292 19.47C62.72 20.0593 62.434 20.9173 62.434 22.044V30H58.794V15.596H62.434V17.338C62.902 16.7313 63.5 16.2547 64.228 15.908C64.9733 15.5613 65.788 15.388 66.672 15.388C67.7987 15.388 68.804 15.6307 69.688 16.116C70.572 16.584 71.2567 17.26 71.742 18.144C72.21 17.312 72.886 16.6447 73.77 16.142C74.6713 15.6393 75.642 15.388 76.682 15.388ZM85.1021 22.746C85.1021 21.29 85.3881 19.9987 85.9601 18.872C86.5495 17.7453 87.3381 16.8787 88.3261 16.272C89.3315 15.6653 90.4495 15.362 91.6801 15.362C92.7548 15.362 93.6908 15.5787 94.4881 16.012C95.3028 16.4453 95.9528 16.9913 96.4381 17.65V15.596H100.104V30H96.4381V27.894C95.9701 28.57 95.3201 29.1333 94.4881 29.584C93.6735 30.0173 92.7288 30.234 91.6541 30.234C90.4408 30.234 89.3315 29.922 88.3261 29.298C87.3381 28.674 86.5495 27.7987 85.9601 26.672C85.3881 25.528 85.1021 24.2193 85.1021 22.746ZM96.4381 22.798C96.4381 21.914 96.2648 21.16 95.9181 20.536C95.5715 19.8947 95.1035 19.4093 94.5141 19.08C93.9248 18.7333 93.2921 18.56 92.6161 18.56C91.9401 18.56 91.3161 18.7247 90.7441 19.054C90.1721 19.3833 89.7041 19.8687 89.3401 20.51C88.9935 21.134 88.8201 21.8793 88.8201 22.746C88.8201 23.6127 88.9935 24.3753 89.3401 25.034C89.7041 25.6753 90.1721 26.1693 90.7441 26.516C91.3335 26.8627 91.9575 27.036 92.6161 27.036C93.2921 27.036 93.9248 26.8713 94.5141 26.542C95.1035 26.1953 95.5715 25.71 95.9181 25.086C96.2648 24.4447 96.4381 23.682 96.4381 22.798ZM107.897 18.586V25.554C107.897 26.0393 108.01 26.3947 108.235 26.62C108.478 26.828 108.877 26.932 109.431 26.932H111.121V30H108.833C105.765 30 104.231 28.5093 104.231 25.528V18.586H102.515V15.596H104.231V12.034H107.897V15.596H111.121V18.586H107.897ZM120.135 30.234C118.749 30.234 117.501 29.9307 116.391 29.324C115.282 28.7 114.407 27.8247 113.765 26.698C113.141 25.5713 112.829 24.2713 112.829 22.798C112.829 21.3247 113.15 20.0247 113.791 18.898C114.45 17.7713 115.343 16.9047 116.469 16.298C117.596 15.674 118.853 15.362 120.239 15.362C121.626 15.362 122.883 15.674 124.009 16.298C125.136 16.9047 126.02 17.7713 126.661 18.898C127.32 20.0247 127.649 21.3247 127.649 22.798C127.649 24.2713 127.311 25.5713 126.635 26.698C125.977 27.8247 125.075 28.7 123.931 29.324C122.805 29.9307 121.539 30.234 120.135 30.234ZM120.135 27.062C120.794 27.062 121.409 26.906 121.981 26.594C122.571 26.2647 123.039 25.7793 123.385 25.138C123.732 24.4967 123.905 23.7167 123.905 22.798C123.905 21.4287 123.541 20.38 122.813 19.652C122.103 18.9067 121.227 18.534 120.187 18.534C119.147 18.534 118.272 18.9067 117.561 19.652C116.868 20.38 116.521 21.4287 116.521 22.798C116.521 24.1673 116.859 25.2247 117.535 25.97C118.229 26.698 119.095 27.062 120.135 27.062ZM135.831 30.234C134.653 30.234 133.595 30.026 132.659 29.61C131.723 29.1767 130.978 28.596 130.423 27.868C129.886 27.14 129.591 26.334 129.539 25.45H133.205C133.275 26.0047 133.543 26.464 134.011 26.828C134.497 27.192 135.095 27.374 135.805 27.374C136.499 27.374 137.036 27.2353 137.417 26.958C137.816 26.6807 138.015 26.3253 138.015 25.892C138.015 25.424 137.773 25.0773 137.287 24.852C136.819 24.6093 136.065 24.3493 135.025 24.072C133.951 23.812 133.067 23.5433 132.373 23.266C131.697 22.9887 131.108 22.564 130.605 21.992C130.12 21.42 129.877 20.6487 129.877 19.678C129.877 18.8807 130.103 18.1527 130.553 17.494C131.021 16.8353 131.68 16.3153 132.529 15.934C133.396 15.5527 134.41 15.362 135.571 15.362C137.287 15.362 138.657 15.7953 139.679 16.662C140.702 17.5113 141.265 18.664 141.369 20.12H137.885C137.833 19.548 137.591 19.0973 137.157 18.768C136.741 18.4213 136.178 18.248 135.467 18.248C134.809 18.248 134.297 18.3693 133.933 18.612C133.587 18.8547 133.413 19.1927 133.413 19.626C133.413 20.1113 133.656 20.484 134.141 20.744C134.627 20.9867 135.381 21.238 136.403 21.498C137.443 21.758 138.301 22.0267 138.977 22.304C139.653 22.5813 140.234 23.0147 140.719 23.604C141.222 24.176 141.482 24.9387 141.499 25.892C141.499 26.724 141.265 27.4693 140.797 28.128C140.347 28.7867 139.688 29.3067 138.821 29.688C137.972 30.052 136.975 30.234 135.831 30.234ZM168.571 15.388C170.339 15.388 171.76 15.934 172.835 17.026C173.927 18.1007 174.473 19.6087 174.473 21.55V30H170.833V22.044C170.833 20.9173 170.547 20.0593 169.975 19.47C169.403 18.8633 168.623 18.56 167.635 18.56C166.647 18.56 165.858 18.8633 165.269 19.47C164.697 20.0593 164.411 20.9173 164.411 22.044V30H160.771V22.044C160.771 20.9173 160.485 20.0593 159.913 19.47C159.341 18.8633 158.561 18.56 157.573 18.56C156.567 18.56 155.77 18.8633 155.181 19.47C154.609 20.0593 154.323 20.9173 154.323 22.044V30H150.683V15.596H154.323V17.338C154.791 16.7313 155.389 16.2547 156.117 15.908C156.862 15.5613 157.677 15.388 158.561 15.388C159.687 15.388 160.693 15.6307 161.577 16.116C162.461 16.584 163.145 17.26 163.631 18.144C164.099 17.312 164.775 16.6447 165.659 16.142C166.56 15.6393 167.531 15.388 168.571 15.388ZM184.323 30.234C182.936 30.234 181.688 29.9307 180.579 29.324C179.469 28.7 178.594 27.8247 177.953 26.698C177.329 25.5713 177.017 24.2713 177.017 22.798C177.017 21.3247 177.337 20.0247 177.979 18.898C178.637 17.7713 179.53 16.9047 180.657 16.298C181.783 15.674 183.04 15.362 184.427 15.362C185.813 15.362 187.07 15.674 188.197 16.298C189.323 16.9047 190.207 17.7713 190.849 18.898C191.507 20.0247 191.837 21.3247 191.837 22.798C191.837 24.2713 191.499 25.5713 190.823 26.698C190.164 27.8247 189.263 28.7 188.119 29.324C186.992 29.9307 185.727 30.234 184.323 30.234ZM184.323 27.062C184.981 27.062 185.597 26.906 186.169 26.594C186.758 26.2647 187.226 25.7793 187.573 25.138C187.919 24.4967 188.093 23.7167 188.093 22.798C188.093 21.4287 187.729 20.38 187.001 19.652C186.29 18.9067 185.415 18.534 184.375 18.534C183.335 18.534 182.459 18.9067 181.749 19.652C181.055 20.38 180.709 21.4287 180.709 22.798C180.709 24.1673 181.047 25.2247 181.723 25.97C182.416 26.698 183.283 27.062 184.323 27.062ZM202.489 15.388C204.205 15.388 205.592 15.934 206.649 17.026C207.706 18.1007 208.235 19.6087 208.235 21.55V30H204.595V22.044C204.595 20.9 204.309 20.0247 203.737 19.418C203.165 18.794 202.385 18.482 201.397 18.482C200.392 18.482 199.594 18.794 199.005 19.418C198.433 20.0247 198.147 20.9 198.147 22.044V30H194.507V15.596H198.147V17.39C198.632 16.766 199.248 16.2807 199.993 15.934C200.756 15.57 201.588 15.388 202.489 15.388ZM225.086 22.486C225.086 23.006 225.052 23.474 224.982 23.89H214.452C214.539 24.93 214.903 25.7447 215.544 26.334C216.186 26.9233 216.974 27.218 217.91 27.218C219.262 27.218 220.224 26.6373 220.796 25.476H224.722C224.306 26.8627 223.509 28.0067 222.33 28.908C221.152 29.792 219.704 30.234 217.988 30.234C216.602 30.234 215.354 29.9307 214.244 29.324C213.152 28.7 212.294 27.8247 211.67 26.698C211.064 25.5713 210.76 24.2713 210.76 22.798C210.76 21.3073 211.064 19.9987 211.67 18.872C212.277 17.7453 213.126 16.8787 214.218 16.272C215.31 15.6653 216.567 15.362 217.988 15.362C219.358 15.362 220.58 15.6567 221.654 16.246C222.746 16.8353 223.587 17.676 224.176 18.768C224.783 19.8427 225.086 21.082 225.086 22.486ZM221.316 21.446C221.299 20.51 220.961 19.7647 220.302 19.21C219.644 18.638 218.838 18.352 217.884 18.352C216.983 18.352 216.22 18.6293 215.596 19.184C214.99 19.7213 214.617 20.4753 214.478 21.446H221.316ZM241.523 15.596L232.605 36.812H228.731L231.851 29.636L226.079 15.596H230.161L233.879 25.658L237.649 15.596H241.523Z" fill="white"/>
<path d="M34.1422 5.85781C30.3647 2.08031 25.3422 0 20 0C14.6578 0 9.63531 2.08031 5.85781 5.85781C2.08031 9.63531 0 14.6578 0 20C0 25.3422 2.08039 30.3646 5.85781 34.1422C9.63523 37.9198 14.6578 40 20 40C25.3422 40 30.3647 37.9197 34.1422 34.1422C37.9197 30.3647 40 25.3422 40 20C40 14.6578 37.9196 9.63539 34.1422 5.85781Z" fill="#33CC95"/>
<g clip-path="url(#clip0)">
<path d="M20.5714 8V33.1429" stroke="white" stroke-width="2" stroke-linecap="round" stroke-linejoin="round"/>
<path d="M26.2857 12.5714H17.7143C16.6534 12.5714 15.636 12.9929 14.8859 13.743C14.1357 14.4931 13.7143 15.5106 13.7143 16.5714C13.7143 17.6323 14.1357 18.6497 14.8859 19.3999C15.636 20.15 16.6534 20.5714 17.7143 20.5714H23.4286C24.4894 20.5714 25.5069 20.9929 26.257 21.743C27.0072 22.4932 27.4286 23.5106 27.4286 24.5714C27.4286 25.6323 27.0072 26.6497 26.257 27.3999C25.5069 28.15 24.4894 28.5714 23.4286 28.5714H13.7143" stroke="white" stroke-width="2" stroke-linecap="round" stroke-linejoin="round"/>
</g>
<defs>
<clipPath id="clip0">
<rect width="27.4286" height="27.4286" fill="white" transform="translate(6.85715 6.85714)"/>
</clipPath>
</defs>
</svg>
